<svg version="1.1" id="Layer_1" xmlns="http://www.w3.org/2000/svg" xmlns:xlink="http://www.w3.org/1999/xlink" x="0px" y="0px"
	 width="100%" viewBox="0 0 512 512" enable-background="new 0 0 512 512" xml:space="preserve">
<path fill="#010100" opacity="1.000000" stroke="none" 
	d="
M285.000000,513.000000 
	C190.023056,513.000000 95.546112,513.000000 1.069162,513.000000 
	C1.046106,512.856445 1.002844,512.712830 1.002841,512.569275 
	C0.999984,342.110870 1.000000,171.652466 1.000000,1.097036 
	C171.560287,1.097036 342.120667,1.097036 512.840515,1.097036 
	C512.840515,171.666550 512.840515,342.333252 512.840515,513.000000 
	C437.129364,513.000000 361.314667,513.000000 285.000000,513.000000 
M131.503479,233.000290 
	C128.337845,233.000290 125.130493,233.324982 122.016266,232.924881 
	C117.234337,232.310501 113.867912,234.214050 110.617043,237.488449 
	C96.696091,251.510040 89.133255,268.304962 89.069054,288.047150 
	C88.890236,343.030914 89.000725,398.015594 89.014763,452.999939 
	C89.015083,454.264984 89.226471,455.529999 89.357689,456.999786 
	C93.837791,456.999786 97.987007,456.991608 102.136177,457.001587 
	C109.244431,457.018707 113.054489,459.885254 112.961197,465.130432 
	C112.870766,470.214935 109.166534,472.983643 102.366562,472.996063 
	C93.035919,473.013153 83.704895,472.954376 74.374657,473.018524 
	C68.539780,473.058655 64.965309,476.239563 65.038780,481.113281 
	C65.109329,485.792267 68.600822,488.958771 74.110382,488.974304 
	C94.770996,489.032562 115.432060,489.045959 136.092529,488.965851 
	C141.935150,488.943207 144.861053,485.837280 144.979797,479.899994 
	C145.069733,475.403076 144.950897,470.902252 145.013031,466.404358 
	C145.095078,460.465240 147.267258,457.803558 153.085358,457.043579 
	C157.784164,456.429779 160.714676,453.810364 160.810852,449.348969 
	C161.100861,435.896942 160.915512,422.434662 160.915512,408.806458 
	C159.501953,408.502869 158.399857,408.213959 157.280273,408.033478 
	C137.400360,404.828461 124.686928,391.991577 121.918816,372.123199 
	C119.071152,351.683716 123.526543,332.418762 131.716675,313.834045 
	C135.917953,304.300659 141.373688,295.580994 149.477097,288.796967 
	C161.927887,278.373413 176.119568,278.255646 188.464569,288.870544 
	C192.333542,292.197296 195.930801,296.116486 198.720184,300.375122 
	C211.785629,320.322601 217.868774,342.419037 216.780655,366.185852 
	C215.746536,388.773804 203.808868,402.981995 183.161255,407.596436 
	C181.245544,408.024597 179.302994,408.332642 177.081619,408.751343 
	C177.081619,422.444824 176.917145,435.907867 177.178238,449.362610 
	C177.260406,453.596863 179.986237,456.270233 184.423904,456.988037 
	C190.865967,458.030090 192.894928,460.313660 192.987045,466.419495 
	C193.049881,470.584015 192.975082,474.750458 193.006119,478.915710 
	C193.059998,486.147064 195.786713,488.973450 202.912628,488.986542 
	C222.906860,489.023285 242.901215,489.014465 262.895508,488.990692 
	C269.226929,488.983154 272.892761,486.058655 272.960480,481.100403 
	C273.028656,476.112213 269.336395,473.037872 263.104523,473.010254 
	C254.440475,472.971832 245.776154,473.001801 237.111954,472.999847 
	C228.888290,472.997986 225.121368,470.537354 225.036774,465.117279 
	C224.951355,459.644836 228.798904,457.004089 236.867462,457.000092 
	C240.808411,456.998138 244.749359,456.999756 248.764847,456.999756 
	C248.876480,455.777679 248.986313,455.136597 248.986298,454.495514 
	C248.985840,398.511536 249.208405,342.526093 248.843567,286.544434 
	C248.715088,266.828552 240.528580,250.149521 226.274307,236.455750 
	C223.723572,234.005295 221.135254,232.889435 217.477570,232.910477 
	C189.153244,233.073318 160.827560,233.000290 131.503479,233.000290 
M221.768356,61.759918 
	C219.597885,57.830402 217.550049,53.827003 215.235138,49.984520 
	C206.520157,35.518700 194.053558,26.922638 176.948547,25.316311 
	C152.958359,23.063400 133.441101,30.029816 121.447182,52.181358 
	C117.183846,60.055325 113.349876,68.222374 110.050003,76.545113 
	C102.576935,95.393227 96.074028,114.639107 88.197113,133.309998 
	C81.426125,149.359497 79.478920,165.671234 82.134987,182.634857 
	C83.830101,193.461105 87.398346,203.629669 95.202507,211.780426 
	C98.822906,215.561615 103.056160,217.906052 107.602272,216.931015 
	C106.752098,210.451035 104.747269,204.012375 105.291702,197.796997 
	C107.712105,170.164734 118.200951,145.824219 138.384537,126.522087 
	C157.397736,108.339203 179.594101,108.428322 199.153107,125.978027 
	C211.963394,137.472305 220.349625,152.023697 226.053436,168.041260 
	C231.687866,183.864014 236.749466,199.919510 229.311829,216.742691 
	C234.573059,217.707428 238.861252,216.146912 241.850342,212.546066 
	C245.316467,208.370575 248.905853,203.934387 250.935013,198.992661 
	C259.253693,178.733871 259.324005,158.190674 251.416260,137.705383 
	C245.071243,121.268387 238.693787,104.843857 232.297379,88.426788 
	C228.919037,79.755905 225.469467,71.112762 221.768356,61.759918 
M322.571045,173.086914 
	C320.298126,179.119965 318.025238,185.153030 315.668610,191.408279 
	C321.865082,193.381683 329.973389,193.206207 328.722015,201.991135 
	C327.423920,211.103928 319.875244,208.878952 313.361511,207.819748 
	C313.361511,214.210693 313.361511,219.977371 313.361511,226.252838 
	C319.795380,225.064117 327.311157,222.823639 328.703888,231.941772 
	C330.041107,240.696930 321.995178,240.651123 316.340668,242.303223 
	C320.686066,256.520508 330.410492,264.945160 347.909943,268.968994 
	C369.051025,273.830170 390.587433,273.947266 412.019653,272.279785 
	C423.846069,271.359680 435.756226,269.139313 447.163727,265.878754 
	C458.638977,262.598816 466.167908,254.130859 469.699097,242.455490 
	C459.017303,239.152298 455.993835,236.760880 457.160950,231.821609 
	C459.291595,222.804855 466.367920,225.280411 472.394714,226.059982 
	C472.394714,219.812958 472.394714,213.974152 472.394714,208.107712 
	C461.695557,208.987564 458.376495,207.882690 457.325806,202.899780 
	C456.975952,201.240540 456.996674,198.523773 457.991547,197.737686 
	C461.451324,195.003967 465.412720,192.905060 469.571442,190.323883 
	C464.162354,169.540924 453.482422,151.341293 432.997375,138.933716 
	C432.997375,143.823517 433.052612,147.791443 432.984222,151.757233 
	C432.885468,157.482010 429.586426,161.121170 424.749878,160.963608 
	C420.091827,160.811859 417.081268,157.314392 417.019470,151.764282 
	C416.947357,145.288528 417.002625,138.811356 417.002625,131.978897 
	C411.664337,131.020676 406.623230,130.115799 400.998779,129.106216 
	C400.998779,131.344711 400.999115,133.139603 400.998718,134.934509 
	C400.996155,146.094223 401.071503,157.254730 400.955719,168.413269 
	C400.902740,173.520782 397.603821,176.905197 393.092041,176.963593 
	C388.566742,177.022171 385.282166,173.649521 385.024536,168.605576 
	C384.939667,166.944138 385.001831,165.275009 385.001709,163.609406 
	C385.000824,152.311096 385.001221,141.012787 385.001221,129.122940 
	C379.364960,130.133408 374.247070,131.050949 368.996765,131.992218 
	C368.996765,139.104614 369.072571,145.589432 368.973419,152.071594 
	C368.890259,157.507431 365.629211,161.003174 360.935089,160.963608 
	C356.253357,160.924149 353.126648,157.426300 353.018738,151.949371 
	C352.938568,147.879623 353.002991,143.807037 353.002991,139.485825 
	C341.430542,144.876770 330.533417,156.928833 322.571045,173.086914 
M448.996307,345.016052 
	C451.590027,345.016052 454.183746,345.016052 456.856323,345.016052 
	C456.856323,335.009491 457.281738,325.675140 456.744568,316.396515 
	C456.125885,305.710297 452.185852,296.030273 445.801666,287.368744 
	C444.148529,285.125946 442.464478,284.388092 439.516479,284.958771 
	C410.104767,290.652679 380.583435,290.192719 351.048859,285.984528 
	C341.366394,284.604950 341.278503,284.409241 336.488617,293.112396 
	C334.576813,296.586182 332.997742,300.296875 331.712952,304.052216 
	C327.172913,317.322113 329.626984,331.025299 328.919342,344.863220 
	C335.644318,345.437927 344.557526,342.949585 344.696106,352.835754 
	C344.840942,363.166107 335.530426,360.383636 329.316315,361.211365 
	C329.316315,366.626648 329.316315,371.688812 329.316315,377.019836 
	C332.118256,377.019836 334.607300,376.885864 337.076813,377.048553 
	C341.789093,377.359009 345.003723,380.718353 344.960388,385.072510 
	C344.917145,389.417419 341.682190,392.674133 336.923981,392.955872 
	C334.348602,393.108368 331.756744,392.983032 329.129944,392.983032 
	C329.129944,414.705048 329.129944,435.672150 329.129944,454.404785 
	C332.985687,458.791016 335.669739,461.844391 337.933807,464.419952 
	C341.812805,449.919830 353.200439,441.081482 369.242828,441.004517 
	C374.358734,440.979980 379.474884,441.000702 384.746826,441.000702 
	C384.746826,435.086304 384.746826,429.679047 384.746826,424.261108 
	C370.628540,420.805542 363.591400,411.408081 361.769897,397.718567 
	C359.390808,379.838409 363.027191,362.917725 370.889893,346.906342 
	C372.979095,342.652008 375.918549,338.596893 379.241791,335.209961 
	C387.466980,326.827026 398.511261,326.737335 406.681335,335.168304 
	C410.428619,339.035217 413.577362,343.770752 415.951141,348.624176 
	C422.257660,361.518494 425.080353,375.342194 424.960571,389.698547 
	C424.802551,408.632812 418.623779,417.632233 401.364441,424.562500 
	C401.364441,430.008423 401.364441,435.412781 401.364441,440.770996 
	C419.996643,440.770996 438.263336,440.770996 456.733154,440.770996 
	C456.733154,424.818909 456.733154,409.096497 456.733154,393.168610 
	C450.315826,392.487366 441.374878,395.060791 441.297485,385.083221 
	C441.217438,374.760223 450.592834,377.714783 456.655212,376.716583 
	C456.655212,371.319855 456.655212,366.255035 456.655212,361.143555 
	C450.345184,360.589722 442.685974,362.931610 441.190948,353.832947 
	C440.401001,349.025269 443.379608,346.065186 448.996307,345.016052 
M195.382324,382.775574 
	C196.959061,378.795197 199.432373,374.930664 199.964127,370.815277 
	C202.970963,347.544556 197.362381,326.151581 183.868011,307.109528 
	C174.209534,293.480316 163.781998,293.628479 153.985352,307.265076 
	C141.286545,324.941376 135.992752,345.030731 137.304230,366.600098 
	C138.283966,382.713226 146.242310,390.851227 162.265717,392.562286 
	C174.171585,393.833649 186.060638,393.520477 195.382324,382.775574 
M216.317764,193.214401 
	C212.699631,171.994202 204.095016,153.201309 188.456024,138.164917 
	C175.643631,125.846237 162.468353,125.762550 149.691666,138.037384 
	C132.989990,154.083038 123.961243,174.158646 121.218765,196.970291 
	C119.874146,208.154678 123.814682,213.933228 134.947968,214.779449 
	C153.143372,216.162399 171.454758,216.228470 189.720596,216.352097 
	C195.462402,216.390961 201.320465,215.265091 206.936646,213.897537 
	C214.379913,212.085114 217.042816,208.125092 216.973114,200.546906 
	C216.953278,198.392014 216.670883,196.239548 216.317764,193.214401 
M279.642181,92.857277 
	C270.594269,80.706108 261.927277,68.242409 252.328491,56.543209 
	C247.910782,51.158810 241.800644,47.097473 236.171600,42.812332 
	C234.481339,41.525620 231.825378,41.507458 230.496567,41.147690 
	C236.932404,57.381428 244.187012,73.134094 249.441742,89.527794 
	C257.460968,114.546112 273.167389,137.127274 273.027527,164.951401 
	C274.174957,164.670074 274.830078,164.617859 275.387665,164.357101 
	C296.228210,154.611130 303.661255,125.106239 289.937622,106.630684 
	C286.661530,102.220184 283.357971,97.830048 279.642181,92.857277 
M43.988380,113.658485 
	C36.466408,134.896347 47.052876,160.954437 64.651512,164.525345 
	C65.302734,159.258804 65.195724,153.754333 66.758438,148.773788 
	C70.332069,137.384216 74.609344,126.208504 78.805428,115.022675 
	C86.163712,95.407089 93.559700,75.803711 101.201210,56.297592 
	C103.207870,51.175297 106.174568,46.429096 109.039925,40.848927 
	C101.099388,41.845825 95.023430,45.194305 90.820068,50.620964 
	C75.340714,70.605202 60.295662,90.925911 45.105217,111.133553 
	C44.713924,111.654099 44.529713,112.330315 43.988380,113.658485 
M494.246368,482.578613 
	C498.135071,476.135071 498.356323,469.562164 494.116364,463.331024 
	C488.961731,455.755737 481.072693,456.776093 473.145905,457.220581 
	C472.536194,463.627350 475.153229,472.565643 465.202698,472.705597 
	C454.851685,472.851166 457.539337,463.627838 456.866028,457.269897 
	C451.446991,457.269897 446.379181,457.269897 441.147858,457.269897 
	C440.538483,463.586884 443.030121,472.268036 433.548950,472.683838 
	C422.794891,473.155487 425.668335,463.559784 424.750092,457.325989 
	C416.677551,457.325989 408.948486,457.325989 401.355621,457.325989 
	C401.355621,468.050629 401.355621,478.445892 401.355621,488.995514 
	C428.524139,488.995514 455.341461,489.230225 482.145386,488.737061 
	C486.069275,488.664917 489.929413,485.127930 494.246368,482.578613 
M397.719940,348.786133 
	C393.344604,343.941467 391.522675,343.754211 388.231506,348.998230 
	C379.060974,363.610229 375.251465,379.595093 377.867981,396.732513 
	C379.228210,405.641479 384.039276,409.059082 393.233368,408.995483 
	C402.086395,408.934265 406.776825,405.490448 408.120758,396.756226 
	C410.729797,379.799591 406.870056,364.038818 397.719940,348.786133 
M73.004333,423.500000 
	C73.004333,399.376953 73.004333,375.253937 73.004333,351.130890 
	C62.436417,377.505127 55.818554,404.494751 57.259537,432.892670 
	C57.711395,441.797638 59.218208,450.614502 63.689358,458.561249 
	C66.987747,457.848389 69.857445,457.228149 73.004333,456.548035 
	C73.004333,445.774719 73.004333,435.137360 73.004333,423.500000 
M267.980438,356.567993 
	C267.252594,354.668854 266.524780,352.769684 265.796936,350.870544 
	C265.595001,350.962494 265.393066,351.054413 265.191132,351.146362 
	C265.191132,386.274872 265.191132,421.403381 265.191132,456.644043 
	C268.378876,457.281555 271.395233,457.884796 274.313629,458.468445 
	C278.411224,450.682495 280.742188,440.452271 280.950928,429.222687 
	C281.411835,404.421295 276.156677,380.625671 267.980438,356.567993 
M302.696625,393.202454 
	C297.493469,415.273407 293.728210,437.366608 300.901794,459.663605 
	C305.277649,458.483307 308.931213,457.497864 312.697479,456.481995 
	C312.697479,425.802460 312.697479,395.043640 312.697479,364.284790 
	C312.338593,364.203033 311.979706,364.121307 311.620819,364.039551 
	C308.709839,373.493652 305.798828,382.947723 302.696625,393.202454 
M376.468140,489.001984 
	C379.222290,489.001984 381.976440,489.001984 384.589355,489.001984 
	C384.589355,477.907074 384.589355,467.544098 384.589355,456.998322 
	C379.362976,456.998322 374.548157,456.979034 369.733551,457.002258 
	C359.251617,457.052734 352.960663,463.127075 353.000183,473.131683 
	C353.038635,482.855591 359.341919,488.918396 369.506714,488.999115 
	C371.501282,489.014984 373.496033,489.001770 376.468140,489.001984 
M472.996460,401.500000 
	C472.996460,414.572235 472.996460,427.644501 472.996460,441.030701 
	C478.618591,441.030701 483.528259,441.030701 488.866638,441.030701 
	C489.844391,414.077087 483.494080,388.789703 473.648224,363.434509 
	C473.228882,364.515198 473.031525,364.787018 473.031006,365.059235 
	C473.008575,376.872803 473.003571,388.686401 472.996460,401.500000 
M49.114151,487.770142 
	C49.737122,482.284546 51.341610,476.679474 50.692513,471.348755 
	C50.105106,466.524689 47.076187,461.992126 45.048084,457.364227 
	C44.931774,457.098785 44.132294,457.042084 43.650425,457.041016 
	C35.228947,457.022308 26.807415,457.027496 18.329983,457.027496 
	C20.101839,471.559326 32.629101,484.241791 49.114151,487.770142 
M330.295441,135.779724 
	C332.633148,133.765518 334.970825,131.751312 337.560883,129.519669 
	C330.815948,124.478745 324.477051,119.680122 318.052826,114.998566 
	C316.946228,114.192146 315.477051,113.883263 314.175354,113.344559 
	C313.782013,114.698517 313.058197,116.049843 313.047394,117.406845 
	C312.956238,128.852188 312.984985,140.298584 313.011200,151.744583 
	C313.013916,152.930084 313.234375,154.115082 313.307190,154.837601 
	C318.804565,148.615891 324.276276,142.423203 330.295441,135.779724 
M473.004700,139.495514 
	C472.980499,130.718689 472.956299,121.941856 472.932098,113.165024 
	C472.310852,112.993599 471.689575,112.822166 471.068329,112.650742 
	C463.597992,118.213821 456.127655,123.776901 449.189240,128.943848 
	C457.370972,137.832382 465.190948,146.327927 473.004700,154.816696 
	C473.004700,150.126266 473.004700,145.309296 473.004700,139.495514 
M313.951202,489.000305 
	C322.635651,489.000305 331.320099,489.000305 339.549774,489.000305 
	C338.389648,481.841003 337.334045,475.326752 336.482239,470.070099 
	C333.393677,471.007111 330.174896,472.450348 326.826477,472.877808 
	C322.903320,473.378632 318.867065,472.969421 314.880280,473.001587 
	C309.037750,473.048706 305.603790,475.524750 305.050140,480.032684 
	C304.506348,484.460266 307.269348,487.541290 313.951202,489.000305 
M168.651825,467.348572 
	C161.692490,469.713409 160.019211,474.823486 160.892136,481.579163 
	C161.178070,483.792084 160.406281,486.141663 160.081421,488.720764 
	C166.062317,488.720764 171.934769,488.720764 177.911728,488.720764 
	C177.589661,486.150787 176.819168,483.800781 177.106735,481.588287 
	C177.984634,474.833984 176.310196,469.725189 168.651825,467.348572 
z"/>
<path fill="#D39073" opacity="1.000000" stroke="none" 
	d="
M132.002884,233.000290 
	C160.827560,233.000290 189.153244,233.073318 217.477570,232.910477 
	C221.135254,232.889435 223.723572,234.005295 226.274307,236.455750 
	C240.528580,250.149521 248.715088,266.828552 248.843567,286.544434 
	C249.208405,342.526093 248.985840,398.511536 248.986298,454.495514 
	C248.986313,455.136597 248.876480,455.777679 248.764847,456.999756 
	C244.749359,456.999756 240.808411,456.998138 236.867462,457.000092 
	C228.798904,457.004089 224.951355,459.644836 225.036774,465.117279 
	C225.121368,470.537354 228.888290,472.997986 237.111954,472.999847 
	C245.776154,473.001801 254.440475,472.971832 263.104523,473.010254 
	C269.336395,473.037872 273.028656,476.112213 272.960480,481.100403 
	C272.892761,486.058655 269.226929,488.983154 262.895508,488.990692 
	C242.901215,489.014465 222.906860,489.023285 202.912628,488.986542 
	C195.786713,488.973450 193.059998,486.147064 193.006119,478.915710 
	C192.975082,474.750458 193.049881,470.584015 192.987045,466.419495 
	C192.894928,460.313660 190.865967,458.030090 184.423904,456.988037 
	C179.986237,456.270233 177.260406,453.596863 177.178238,449.362610 
	C176.917145,435.907867 177.081619,422.444824 177.081619,408.751343 
	C179.302994,408.332642 181.245544,408.024597 183.161255,407.596436 
	C203.808868,402.981995 215.746536,388.773804 216.780655,366.185852 
	C217.868774,342.419037 211.785629,320.322601 198.720184,300.375122 
	C195.930801,296.116486 192.333542,292.197296 188.464569,288.870544 
	C176.119568,278.255646 161.927887,278.373413 149.477097,288.796967 
	C141.373688,295.580994 135.917953,304.300659 131.716675,313.834045 
	C123.526543,332.418762 119.071152,351.683716 121.918816,372.123199 
	C124.686928,391.991577 137.400360,404.828461 157.280273,408.033478 
	C158.399857,408.213959 159.501953,408.502869 160.915512,408.806458 
	C160.915512,422.434662 161.100861,435.896942 160.810852,449.348969 
	C160.714676,453.810364 157.784164,456.429779 153.085358,457.043579 
	C147.267258,457.803558 145.095078,460.465240 145.013031,466.404358 
	C144.950897,470.902252 145.069733,475.403076 144.979797,479.899994 
	C144.861053,485.837280 141.935150,488.943207 136.092529,488.965851 
	C115.432060,489.045959 94.770996,489.032562 74.110382,488.974304 
	C68.600822,488.958771 65.109329,485.792267 65.038780,481.113281 
	C64.965309,476.239563 68.539780,473.058655 74.374657,473.018524 
	C83.704895,472.954376 93.035919,473.013153 102.366562,472.996063 
	C109.166534,472.983643 112.870766,470.214935 112.961197,465.130432 
	C113.054489,459.885254 109.244431,457.018707 102.136177,457.001587 
	C97.987007,456.991608 93.837791,456.999786 89.357689,456.999786 
	C89.226471,455.529999 89.015083,454.264984 89.014763,452.999939 
	C89.000725,398.015594 88.890236,343.030914 89.069054,288.047150 
	C89.133255,268.304962 96.696091,251.510040 110.617043,237.488449 
	C113.867912,234.214050 117.234337,232.310501 122.016266,232.924881 
	C125.130493,233.324982 128.337845,233.000290 132.002884,233.000290 
z"/>
<path fill="#C38568" opacity="1.000000" stroke="none" 
	d="
M221.910217,62.108505 
	C225.469467,71.112762 228.919037,79.755905 232.297379,88.426788 
	C238.693787,104.843857 245.071243,121.268387 251.416260,137.705383 
	C259.324005,158.190674 259.253693,178.733871 250.935013,198.992661 
	C248.905853,203.934387 245.316467,208.370575 241.850342,212.546066 
	C238.861252,216.146912 234.573059,217.707428 229.311829,216.742691 
	C236.749466,199.919510 231.687866,183.864014 226.053436,168.041260 
	C220.349625,152.023697 211.963394,137.472305 199.153107,125.978027 
	C179.594101,108.428322 157.397736,108.339203 138.384537,126.522087 
	C118.200951,145.824219 107.712105,170.164734 105.291702,197.796997 
	C104.747269,204.012375 106.752098,210.451035 107.602272,216.931015 
	C103.056160,217.906052 98.822906,215.561615 95.202507,211.780426 
	C87.398346,203.629669 83.830101,193.461105 82.134987,182.634857 
	C79.478920,165.671234 81.426125,149.359497 88.197113,133.309998 
	C96.074028,114.639107 102.576935,95.393227 110.050003,76.545113 
	C113.349876,68.222374 117.183846,60.055325 121.447182,52.181358 
	C133.441101,30.029816 152.958359,23.063400 176.948547,25.316311 
	C194.053558,26.922638 206.520157,35.518700 215.235138,49.984520 
	C217.550049,53.827003 219.597885,57.830402 221.910217,62.108505 
M129.605530,99.585693 
	C131.356842,103.313469 134.445206,105.687759 138.300262,104.324203 
	C140.857040,103.419853 143.942230,100.691360 144.460297,98.278954 
	C144.973236,95.890465 143.262482,91.943718 141.225037,90.408440 
	C139.384109,89.021255 135.463196,89.140839 133.035309,90.081734 
	C129.447159,91.472282 128.460403,95.032692 129.605530,99.585693 
M203.790497,89.222687 
	C200.093124,88.285042 196.361298,88.702034 194.663391,92.211624 
	C193.534424,94.545212 193.127029,98.438950 194.363876,100.382454 
	C195.738098,102.541855 199.513077,104.580544 201.937057,104.271721 
	C204.394287,103.958664 207.404602,101.127869 208.508331,98.656494 
	C210.165802,94.945221 208.098053,91.634315 203.790497,89.222687 
z"/>
<path fill="#B5B8B9" opacity="1.000000" stroke="none" 
	d="
M322.733643,172.746643 
	C330.533417,156.928833 341.430542,144.876770 353.002991,139.485825 
	C353.002991,143.807037 352.938568,147.879623 353.018738,151.949371 
	C353.126648,157.426300 356.253357,160.924149 360.935089,160.963608 
	C365.629211,161.003174 368.890259,157.507431 368.973419,152.071594 
	C369.072571,145.589432 368.996765,139.104614 368.996765,131.992218 
	C374.247070,131.050949 379.364960,130.133408 385.001221,129.122940 
	C385.001221,141.012787 385.000824,152.311096 385.001709,163.609406 
	C385.001831,165.275009 384.939667,166.944138 385.024536,168.605576 
	C385.282166,173.649521 388.566742,177.022171 393.092041,176.963593 
	C397.603821,176.905197 400.902740,173.520782 400.955719,168.413269 
	C401.071503,157.254730 400.996155,146.094223 400.998718,134.934509 
	C400.999115,133.139603 400.998779,131.344711 400.998779,129.106216 
	C406.623230,130.115799 411.664337,131.020676 417.002625,131.978897 
	C417.002625,138.811356 416.947357,145.288528 417.019470,151.764282 
	C417.081268,157.314392 420.091827,160.811859 424.749878,160.963608 
	C429.586426,161.121170 432.885468,157.482010 432.984222,151.757233 
	C433.052612,147.791443 432.997375,143.823517 432.997375,138.933716 
	C453.482422,151.341293 464.162354,169.540924 469.571442,190.323883 
	C465.412720,192.905060 461.451324,195.003967 457.991547,197.737686 
	C456.996674,198.523773 456.975952,201.240540 457.325806,202.899780 
	C458.376495,207.882690 461.695557,208.987564 472.394714,208.107712 
	C472.394714,213.974152 472.394714,219.812958 472.394714,226.059982 
	C466.367920,225.280411 459.291595,222.804855 457.160950,231.821609 
	C455.993835,236.760880 459.017303,239.152298 469.699097,242.455490 
	C466.167908,254.130859 458.638977,262.598816 447.163727,265.878754 
	C435.756226,269.139313 423.846069,271.359680 412.019653,272.279785 
	C390.587433,273.947266 369.051025,273.830170 347.909943,268.968994 
	C330.410492,264.945160 320.686066,256.520508 316.340668,242.303223 
	C321.995178,240.651123 330.041107,240.696930 328.703888,231.941772 
	C327.311157,222.823639 319.795380,225.064117 313.361511,226.252838 
	C313.361511,219.977371 313.361511,214.210693 313.361511,207.819748 
	C319.875244,208.878952 327.423920,211.103928 328.722015,201.991135 
	C329.973389,193.206207 321.865082,193.381683 315.668610,191.408279 
	C318.025238,185.153030 320.298126,179.119965 322.733643,172.746643 
M404.713409,236.682556 
	C400.141510,234.120392 400.844025,229.849609 401.157288,225.704926 
	C407.406769,222.853912 409.077820,220.829407 408.961670,216.249710 
	C408.794128,209.640839 404.296143,203.731934 397.929321,201.756760 
	C391.140259,199.650558 384.138641,201.865540 380.147552,207.382019 
	C374.503113,215.183670 376.214447,221.871689 384.518250,225.509155 
	C386.937714,232.271149 383.185150,235.973785 378.140686,239.029465 
	C376.719849,239.890137 375.283539,240.725494 373.869751,241.597443 
	C369.169983,244.495926 367.732513,248.834351 370.096985,252.944016 
	C372.438293,257.013397 376.953064,258.132629 381.790161,255.449203 
	C385.682739,253.289780 389.335999,250.698868 393.022003,248.346298 
	C396.527405,250.609482 399.906616,253.020370 403.498199,255.056686 
	C408.983002,258.166443 413.547638,257.222504 415.978699,252.779556 
	C418.317017,248.506210 416.718353,244.380798 411.561096,241.217377 
	C409.438568,239.915436 407.378937,238.510910 404.713409,236.682556 
M432.618622,200.986420 
	C437.043854,200.911987 440.400391,198.658783 440.629578,194.424164 
	C440.773224,191.770264 439.150940,188.036819 437.064026,186.538483 
	C435.189514,185.192627 430.971741,185.236115 428.941132,186.508102 
	C426.901672,187.785614 425.376221,191.297684 425.262482,193.902008 
	C425.094452,197.749619 428.028839,200.066330 432.618622,200.986420 
M352.603973,185.010437 
	C348.668610,185.403732 345.689728,187.544464 345.358459,191.345627 
	C345.143982,193.806625 346.157715,197.484543 347.938690,198.724228 
	C350.089722,200.221497 354.217865,200.868301 356.411774,199.755997 
	C358.618683,198.637100 360.583862,194.960739 360.717621,192.307388 
	C360.933350,188.027405 357.755707,185.537643 352.603973,185.010437 
z"/>
<path fill="#99A2A7" opacity="1.000000" stroke="none" 
	d="
M448.564392,345.039276 
	C443.379608,346.065186 440.401001,349.025269 441.190948,353.832947 
	C442.685974,362.931610 450.345184,360.589722 456.655212,361.143555 
	C456.655212,366.255035 456.655212,371.319855 456.655212,376.716583 
	C450.592834,377.714783 441.217438,374.760223 441.297485,385.083221 
	C441.374878,395.060791 450.315826,392.487366 456.733154,393.168610 
	C456.733154,409.096497 456.733154,424.818909 456.733154,440.770996 
	C438.263336,440.770996 419.996643,440.770996 401.364441,440.770996 
	C401.364441,435.412781 401.364441,430.008423 401.364441,424.562500 
	C418.623779,417.632233 424.802551,408.632812 424.960571,389.698547 
	C425.080353,375.342194 422.257660,361.518494 415.951141,348.624176 
	C413.577362,343.770752 410.428619,339.035217 406.681335,335.168304 
	C398.511261,326.737335 387.466980,326.827026 379.241791,335.209961 
	C375.918549,338.596893 372.979095,342.652008 370.889893,346.906342 
	C363.027191,362.917725 359.390808,379.838409 361.769897,397.718567 
	C363.591400,411.408081 370.628540,420.805542 384.746826,424.261108 
	C384.746826,429.679047 384.746826,435.086304 384.746826,441.000702 
	C379.474884,441.000702 374.358734,440.979980 369.242828,441.004517 
	C353.200439,441.081482 341.812805,449.919830 337.933807,464.419952 
	C335.669739,461.844391 332.985687,458.791016 329.129944,454.404785 
	C329.129944,435.672150 329.129944,414.705048 329.129944,392.983032 
	C331.756744,392.983032 334.348602,393.108368 336.923981,392.955872 
	C341.682190,392.674133 344.917145,389.417419 344.960388,385.072510 
	C345.003723,380.718353 341.789093,377.359009 337.076813,377.048553 
	C334.607300,376.885864 332.118256,377.019836 329.316315,377.019836 
	C329.316315,371.688812 329.316315,366.626648 329.316315,361.211365 
	C335.530426,360.383636 344.840942,363.166107 344.696106,352.835754 
	C344.557526,342.949585 335.644318,345.437927 328.919342,344.863220 
	C329.626984,331.025299 327.172913,317.322113 331.712952,304.052216 
	C332.997742,300.296875 334.576813,296.586182 336.488617,293.112396 
	C341.278503,284.409241 341.366394,284.604950 351.048859,285.984528 
	C380.583435,290.192719 410.104767,290.652679 439.516479,284.958771 
	C442.464478,284.388092 444.148529,285.125946 445.801666,287.368744 
	C452.185852,296.030273 456.125885,305.710297 456.744568,316.396515 
	C457.281738,325.675140 456.856323,335.009491 456.856323,345.016052 
	C454.183746,345.016052 451.590027,345.016052 448.564392,345.039276 
z"/>
<path fill="#B2795F" opacity="1.000000" stroke="none" 
	d="
M195.167450,383.071320 
	C186.060638,393.520477 174.171585,393.833649 162.265717,392.562286 
	C146.242310,390.851227 138.283966,382.713226 137.304230,366.600098 
	C135.992752,345.030731 141.286545,324.941376 153.985352,307.265076 
	C163.781998,293.628479 174.209534,293.480316 183.868011,307.109528 
	C197.362381,326.151581 202.970963,347.544556 199.964127,370.815277 
	C199.432373,374.930664 196.959061,378.795197 195.167450,383.071320 
z"/>
<path fill="#EDC4A2" opacity="1.000000" stroke="none" 
	d="
M216.413330,193.650177 
	C216.670883,196.239548 216.953278,198.392014 216.973114,200.546906 
	C217.042816,208.125092 214.379913,212.085114 206.936646,213.897537 
	C201.320465,215.265091 195.462402,216.390961 189.720596,216.352097 
	C171.454758,216.228470 153.143372,216.162399 134.947968,214.779449 
	C123.814682,213.933228 119.874146,208.154678 121.218765,196.970291 
	C123.961243,174.158646 132.989990,154.083038 149.691666,138.037384 
	C162.468353,125.762550 175.643631,125.846237 188.456024,138.164917 
	C204.095016,153.201309 212.699631,171.994202 216.413330,193.650177 
M160.967331,170.047318 
	C162.395935,182.704590 156.003296,183.925110 147.340591,184.947800 
	C146.847137,185.006058 146.342209,184.959259 145.844147,184.987854 
	C140.316544,185.305115 136.962830,188.396591 137.030441,193.105972 
	C137.098083,197.817932 140.647171,200.981476 146.066040,200.963043 
	C154.395508,200.934692 162.155930,198.928772 169.015427,193.696625 
	C175.403824,198.650055 182.671509,200.645691 190.460983,200.942490 
	C197.027466,201.192673 200.915192,198.224655 200.968307,193.072952 
	C201.019424,188.114685 197.559143,185.411743 191.118362,184.927322 
	C181.672913,184.216904 175.228653,182.236130 177.222733,169.335770 
	C182.084961,168.041962 185.390152,165.313919 184.931213,159.614334 
	C184.333328,152.189270 178.686035,146.121643 171.392181,145.117905 
	C163.580978,144.042984 156.578751,148.202988 154.012039,155.443405 
	C151.463593,162.632294 153.459793,166.745773 160.967331,170.047318 
z"/>
<path fill="#8A5136" opacity="1.000000" stroke="none" 
	d="
M279.854614,93.143921 
	C283.357971,97.830048 286.661530,102.220184 289.937622,106.630684 
	C303.661255,125.106239 296.228210,154.611130 275.387665,164.357101 
	C274.830078,164.617859 274.174957,164.670074 273.027527,164.951401 
	C273.167389,137.127274 257.460968,114.546112 249.441742,89.527794 
	C244.187012,73.134094 236.932404,57.381428 230.496567,41.147690 
	C231.825378,41.507458 234.481339,41.525620 236.171600,42.812332 
	C241.800644,47.097473 247.910782,51.158810 252.328491,56.543209 
	C261.927277,68.242409 270.594269,80.706108 279.854614,93.143921 
z"/>
<path fill="#8A5136" opacity="1.000000" stroke="none" 
	d="
M44.118652,113.296204 
	C44.529713,112.330315 44.713924,111.654099 45.105217,111.133553 
	C60.295662,90.925911 75.340714,70.605202 90.820068,50.620964 
	C95.023430,45.194305 101.099388,41.845825 109.039925,40.848927 
	C106.174568,46.429096 103.207870,51.175297 101.201210,56.297592 
	C93.559700,75.803711 86.163712,95.407089 78.805428,115.022675 
	C74.609344,126.208504 70.332069,137.384216 66.758438,148.773788 
	C65.195724,153.754333 65.302734,159.258804 64.652702,164.525513 
	C47.052876,160.954437 36.466408,134.896347 44.118652,113.296204 
z"/>
<path fill="#B5B8B9" opacity="1.000000" stroke="none" 
	d="
M494.032715,482.886383 
	C489.929413,485.127930 486.069275,488.664917 482.145386,488.737061 
	C455.341461,489.230225 428.524139,488.995514 401.355621,488.995514 
	C401.355621,478.445892 401.355621,468.050629 401.355621,457.325989 
	C408.948486,457.325989 416.677551,457.325989 424.750092,457.325989 
	C425.668335,463.559784 422.794891,473.155487 433.548950,472.683838 
	C443.030121,472.268036 440.538483,463.586884 441.147858,457.269897 
	C446.379181,457.269897 451.446991,457.269897 456.866028,457.269897 
	C457.539337,463.627838 454.851685,472.851166 465.202698,472.705597 
	C475.153229,472.565643 472.536194,463.627350 473.145905,457.220581 
	C481.072693,456.776093 488.961731,455.755737 494.116364,463.331024 
	C498.356323,469.562164 498.135071,476.135071 494.032715,482.886383 
z"/>
<path fill="#7D8387" opacity="1.000000" stroke="none" 
	d="
M397.918945,349.090576 
	C406.870056,364.038818 410.729797,379.799591 408.120758,396.756226 
	C406.776825,405.490448 402.086395,408.934265 393.233368,408.995483 
	C384.039276,409.059082 379.228210,405.641479 377.867981,396.732513 
	C375.251465,379.595093 379.060974,363.610229 388.231506,348.998230 
	C391.522675,343.754211 393.344604,343.941467 397.918945,349.090576 
z"/>
<path fill="#B1785F" opacity="1.000000" stroke="none" 
	d="
M73.004333,424.000000 
	C73.004333,435.137360 73.004333,445.774719 73.004333,456.548035 
	C69.857445,457.228149 66.987747,457.848389 63.689358,458.561249 
	C59.218208,450.614502 57.711395,441.797638 57.259537,432.892670 
	C55.818554,404.494751 62.436417,377.505127 73.004333,351.130890 
	C73.004333,375.253937 73.004333,399.376953 73.004333,424.000000 
z"/>
<path fill="#B1785F" opacity="1.000000" stroke="none" 
	d="
M268.091736,356.940002 
	C276.156677,380.625671 281.411835,404.421295 280.950928,429.222687 
	C280.742188,440.452271 278.411224,450.682495 274.313629,458.468445 
	C271.395233,457.884796 268.378876,457.281555 265.191132,456.644043 
	C265.191132,421.403381 265.191132,386.274872 265.191132,351.146362 
	C265.393066,351.054413 265.595001,350.962494 265.796936,350.870544 
	C266.524780,352.769684 267.252594,354.668854 268.091736,356.940002 
z"/>
<path fill="#7C8387" opacity="1.000000" stroke="none" 
	d="
M302.792236,392.802124 
	C305.798828,382.947723 308.709839,373.493652 311.620819,364.039551 
	C311.979706,364.121307 312.338593,364.203033 312.697479,364.284790 
	C312.697479,395.043640 312.697479,425.802460 312.697479,456.481995 
	C308.931213,457.497864 305.277649,458.483307 300.901794,459.663605 
	C293.728210,437.366608 297.493469,415.273407 302.792236,392.802124 
z"/>
<path fill="#7D8488" opacity="1.000000" stroke="none" 
	d="
M375.979431,489.001984 
	C373.496033,489.001770 371.501282,489.014984 369.506714,488.999115 
	C359.341919,488.918396 353.038635,482.855591 353.000183,473.131683 
	C352.960663,463.127075 359.251617,457.052734 369.733551,457.002258 
	C374.548157,456.979034 379.362976,456.998322 384.589355,456.998322 
	C384.589355,467.544098 384.589355,477.907074 384.589355,489.001984 
	C381.976440,489.001984 379.222290,489.001984 375.979431,489.001984 
z"/>
<path fill="#7D8387" opacity="1.000000" stroke="none" 
	d="
M472.996460,401.000000 
	C473.003571,388.686401 473.008575,376.872803 473.031006,365.059235 
	C473.031525,364.787018 473.228882,364.515198 473.648224,363.434509 
	C483.494080,388.789703 489.844391,414.077087 488.866638,441.030701 
	C483.528259,441.030701 478.618591,441.030701 472.996460,441.030701 
	C472.996460,427.644501 472.996460,414.572235 472.996460,401.000000 
z"/>
<path fill="#8A5136" opacity="1.000000" stroke="none" 
	d="
M48.731361,487.842010 
	C32.629101,484.241791 20.101839,471.559326 18.329983,457.027496 
	C26.807415,457.027496 35.228947,457.022308 43.650425,457.041016 
	C44.132294,457.042084 44.931774,457.098785 45.048084,457.364227 
	C47.076187,461.992126 50.105106,466.524689 50.692513,471.348755 
	C51.341610,476.679474 49.737122,482.284546 48.731361,487.842010 
z"/>
<path fill="#98A1A6" opacity="1.000000" stroke="none" 
	d="
M330.021729,136.005127 
	C324.276276,142.423203 318.804565,148.615891 313.307190,154.837601 
	C313.234375,154.115082 313.013916,152.930084 313.011200,151.744583 
	C312.984985,140.298584 312.956238,128.852188 313.047394,117.406845 
	C313.058197,116.049843 313.782013,114.698517 314.175354,113.344559 
	C315.477051,113.883263 316.946228,114.192146 318.052826,114.998566 
	C324.477051,119.680122 330.815948,124.478745 337.560883,129.519669 
	C334.970825,131.751312 332.633148,133.765518 330.021729,136.005127 
z"/>
<path fill="#98A1A6" opacity="1.000000" stroke="none" 
	d="
M473.004700,139.993912 
	C473.004700,145.309296 473.004700,150.126266 473.004700,154.816696 
	C465.190948,146.327927 457.370972,137.832382 449.189240,128.943848 
	C456.127655,123.776901 463.597992,118.213821 471.068329,112.650742 
	C471.689575,112.822166 472.310852,112.993599 472.932098,113.165024 
	C472.956299,121.941856 472.980499,130.718689 473.004700,139.993912 
z"/>
<path fill="#98A1A6" opacity="1.000000" stroke="none" 
	d="
M313.509583,488.986816 
	C307.269348,487.541290 304.506348,484.460266 305.050140,480.032684 
	C305.603790,475.524750 309.037750,473.048706 314.880280,473.001587 
	C318.867065,472.969421 322.903320,473.378632 326.826477,472.877808 
	C330.174896,472.450348 333.393677,471.007111 336.482239,470.070099 
	C337.334045,475.326752 338.389648,481.841003 339.549774,489.000305 
	C331.320099,489.000305 322.635651,489.000305 313.509583,488.986816 
z"/>
<path fill="#B1785F" opacity="1.000000" stroke="none" 
	d="
M169.006287,467.348755 
	C176.310196,469.725189 177.984634,474.833984 177.106735,481.588287 
	C176.819168,483.800781 177.589661,486.150787 177.911728,488.720764 
	C171.934769,488.720764 166.062317,488.720764 160.081421,488.720764 
	C160.406281,486.141663 161.178070,483.792084 160.892136,481.579163 
	C160.019211,474.823486 161.692490,469.713409 169.006287,467.348755 
z"/>
<path fill="#050303" opacity="1.000000" stroke="none" 
	d="
M129.448868,99.225105 
	C128.460403,95.032692 129.447159,91.472282 133.035309,90.081734 
	C135.463196,89.140839 139.384109,89.021255 141.225037,90.408440 
	C143.262482,91.943718 144.973236,95.890465 144.460297,98.278954 
	C143.942230,100.691360 140.857040,103.419853 138.300262,104.324203 
	C134.445206,105.687759 131.356842,103.313469 129.448868,99.225105 
z"/>
<path fill="#050303" opacity="1.000000" stroke="none" 
	d="
M204.145447,89.405685 
	C208.098053,91.634315 210.165802,94.945221 208.508331,98.656494 
	C207.404602,101.127869 204.394287,103.958664 201.937057,104.271721 
	C199.513077,104.580544 195.738098,102.541855 194.363876,100.382454 
	C193.127029,98.438950 193.534424,94.545212 194.663391,92.211624 
	C196.361298,88.702034 200.093124,88.285042 204.145447,89.405685 
z"/>
<path fill="#030303" opacity="1.000000" stroke="none" 
	d="
M405.002075,236.917786 
	C407.378937,238.510910 409.438568,239.915436 411.561096,241.217377 
	C416.718353,244.380798 418.317017,248.506210 415.978699,252.779556 
	C413.547638,257.222504 408.983002,258.166443 403.498199,255.056686 
	C399.906616,253.020370 396.527405,250.609482 393.022003,248.346298 
	C389.335999,250.698868 385.682739,253.289780 381.790161,255.449203 
	C376.953064,258.132629 372.438293,257.013397 370.096985,252.944016 
	C367.732513,248.834351 369.169983,244.495926 373.869751,241.597443 
	C375.283539,240.725494 376.719849,239.890137 378.140686,239.029465 
	C383.185150,235.973785 386.937714,232.271149 384.518250,225.509155 
	C376.214447,221.871689 374.503113,215.183670 380.147552,207.382019 
	C384.138641,201.865540 391.140259,199.650558 397.929321,201.756760 
	C404.296143,203.731934 408.794128,209.640839 408.961670,216.249710 
	C409.077820,220.829407 407.406769,222.853912 401.156067,225.705322 
	C400.844025,229.849609 400.141510,234.120392 405.002075,236.917786 
z"/>
<path fill="#080909" opacity="1.000000" stroke="none" 
	d="
M432.222717,200.958527 
	C428.028839,200.066330 425.094452,197.749619 425.262482,193.902008 
	C425.376221,191.297684 426.901672,187.785614 428.941132,186.508102 
	C430.971741,185.236115 435.189514,185.192627 437.064026,186.538483 
	C439.150940,188.036819 440.773224,191.770264 440.629578,194.424164 
	C440.400391,198.658783 437.043854,200.911987 432.222717,200.958527 
z"/>
<path fill="#080909" opacity="1.000000" stroke="none" 
	d="
M352.996155,185.010437 
	C357.755707,185.537643 360.933350,188.027405 360.717621,192.307388 
	C360.583862,194.960739 358.618683,198.637100 356.411774,199.755997 
	C354.217865,200.868301 350.089722,200.221497 347.938690,198.724228 
	C346.157715,197.484543 345.143982,193.806625 345.358459,191.345627 
	C345.689728,187.544464 348.668610,185.403732 352.996155,185.010437 
z"/>
<path fill="#040303" opacity="1.000000" stroke="none" 
	d="
M160.840302,169.649826 
	C153.459793,166.745773 151.463593,162.632294 154.012039,155.443405 
	C156.578751,148.202988 163.580978,144.042984 171.392181,145.117905 
	C178.686035,146.121643 184.333328,152.189270 184.931213,159.614334 
	C185.390152,165.313919 182.084961,168.041962 177.222733,169.335770 
	C175.228653,182.236130 181.672913,184.216904 191.118362,184.927322 
	C197.559143,185.411743 201.019424,188.114685 200.968307,193.072952 
	C200.915192,198.224655 197.027466,201.192673 190.460983,200.942490 
	C182.671509,200.645691 175.403824,198.650055 169.015427,193.696625 
	C162.155930,198.928772 154.395508,200.934692 146.066040,200.963043 
	C140.647171,200.981476 137.098083,197.817932 137.030441,193.105972 
	C136.962830,188.396591 140.316544,185.305115 145.844147,184.987854 
	C146.342209,184.959259 146.847137,185.006058 147.340591,184.947800 
	C156.003296,183.925110 162.395935,182.704590 160.840302,169.649826 
z"/>
</svg>